<svg width="138" height="30" viewBox="0 0 138 30" fill="none" xmlns="http://www.w3.org/2000/svg">
<g clip-path="url(#clip0_8219_12)">
<path d="M0.5 6C0.5 2.96243 2.96243 0.5 6 0.5H132C135.038 0.5 137.5 2.96243 137.5 6V24C137.5 27.0376 135.038 29.5 132 29.5H6C2.96243 29.5 0.5 27.0376 0.5 24V6Z" fill="white" stroke="#E4E4E4"/>
<mask id="mask0_8219_12" style="mask-type:luminance" maskUnits="userSpaceOnUse" x="0" y="0" width="138" height="30">
<path d="M0.5 6C0.5 2.96243 2.96243 0.5 6 0.5H132C135.038 0.5 137.5 2.96243 137.5 6V24C137.5 27.0376 135.038 29.5 132 29.5H6C2.96243 29.5 0.5 27.0376 0.5 24V6Z" fill="white" stroke="white"/>
</mask>
<g mask="url(#mask0_8219_12)">
</g>
<path fill-rule="evenodd" clip-rule="evenodd" d="M118.78 10.3333L120 9H124L125.22 10.3333H127.333C128.067 10.3333 128.667 10.9333 128.667 11.6667V19.6667C128.667 20.4 128.067 21 127.333 21H116.667C115.933 21 115.333 20.4 115.333 19.6667V11.6667C115.333 10.9333 115.933 10.3333 116.667 10.3333H118.78ZM118.667 15.6667C118.667 17.5067 120.16 19 122 19C123.84 19 125.333 17.5067 125.333 15.6667C125.333 13.8267 123.84 12.3333 122 12.3333C120.16 12.3333 118.667 13.8267 118.667 15.6667ZM122 17.8C123.178 17.8 124.133 16.8449 124.133 15.6667C124.133 14.4885 123.178 13.5333 122 13.5333C120.822 13.5333 119.867 14.4885 119.867 15.6667C119.867 16.8449 120.822 17.8 122 17.8Z" fill="#969696"/>
<path d="M16.8924 10.5455V16.5792C16.8924 17.7656 16.0661 18.6151 14.7688 18.6151C13.467 18.6151 12.6452 17.7656 12.6452 16.5792V10.5455H10.9325V16.7223C10.9325 18.7536 12.456 20.1431 14.7688 20.1431C17.0724 20.1431 18.6051 18.7536 18.6051 16.7223V10.5455H16.8924ZM20.3928 22.6591H22.064V18.8828H22.1333C22.3964 19.3999 22.9458 20.1246 24.1645 20.1246C25.8357 20.1246 27.0867 18.7997 27.0867 16.4638C27.0867 14.1001 25.7987 12.8168 24.1599 12.8168C22.9088 12.8168 22.3872 13.5692 22.1333 14.0817H22.0363V12.9091H20.3928V22.6591ZM22.0317 16.4545C22.0317 15.0788 22.6226 14.1879 23.6982 14.1879C24.8108 14.1879 25.3833 15.1342 25.3833 16.4545C25.3833 17.7841 24.8016 18.7536 23.6982 18.7536C22.6318 18.7536 22.0317 17.8303 22.0317 16.4545ZM30.189 10.5455H28.5178V20H30.189V10.5455ZM35.0005 20.1385C37.0779 20.1385 38.3983 18.6751 38.3983 16.4822C38.3983 14.2848 37.0779 12.8168 35.0005 12.8168C32.9231 12.8168 31.6028 14.2848 31.6028 16.4822C31.6028 18.6751 32.9231 20.1385 35.0005 20.1385ZM35.0098 18.7997C33.8603 18.7997 33.2971 17.7749 33.2971 16.4776C33.2971 15.1804 33.8603 14.1417 35.0098 14.1417C36.1408 14.1417 36.704 15.1804 36.704 16.4776C36.704 17.7749 36.1408 18.7997 35.0098 18.7997ZM41.8572 20.1431C42.9697 20.1431 43.6345 19.6214 43.9392 19.0259H43.9946V20H45.6011V15.2543C45.6011 13.38 44.0731 12.8168 42.7204 12.8168C41.2293 12.8168 40.0844 13.4815 39.7151 14.7741L41.2755 14.9957C41.4417 14.511 41.9126 14.0955 42.7297 14.0955C43.5052 14.0955 43.93 14.4925 43.93 15.1896V15.2173C43.93 15.6974 43.4268 15.7205 42.1757 15.8544C40.8 16.0021 39.4843 16.413 39.4843 18.0103C39.4843 19.4045 40.5045 20.1431 41.8572 20.1431ZM42.2911 18.9151C41.594 18.9151 41.0954 18.5966 41.0954 17.9826C41.0954 17.3409 41.654 17.0732 42.4019 16.967C42.8405 16.907 43.7176 16.7962 43.9346 16.6207V17.4563C43.9346 18.2457 43.2975 18.9151 42.2911 18.9151ZM49.9129 20.1246C51.1317 20.1246 51.681 19.3999 51.9442 18.8828H52.0457V20H53.6892V10.5455H52.0134V14.0817H51.9442C51.6903 13.5692 51.1686 12.8168 49.9175 12.8168C48.2787 12.8168 46.9907 14.1001 46.9907 16.4638C46.9907 18.7997 48.2417 20.1246 49.9129 20.1246ZM50.3792 18.7536C49.2758 18.7536 48.6942 17.7841 48.6942 16.4545C48.6942 15.1342 49.2666 14.1879 50.3792 14.1879C51.4548 14.1879 52.0457 15.0788 52.0457 16.4545C52.0457 17.8303 51.4456 18.7536 50.3792 18.7536ZM58.7685 20H60.4812V16.8054H62.2908C64.4744 16.8054 65.647 15.4943 65.647 13.6754C65.647 11.8704 64.4883 10.5455 62.3139 10.5455H58.7685V20ZM60.4812 15.3974V11.9766H62.0508C63.3342 11.9766 63.902 12.669 63.902 13.6754C63.902 14.6818 63.3342 15.3974 62.06 15.3974H60.4812ZM68.732 15.8452C68.732 14.8203 69.3691 14.2294 70.2646 14.2294C71.1418 14.2294 71.6588 14.788 71.6588 15.7436V20H73.33V15.4851C73.33 13.7724 72.3605 12.8168 70.8879 12.8168C69.7984 12.8168 69.1059 13.3107 68.7781 14.114H68.695V10.5455H67.0608V20H68.732V15.8452ZM78.1265 20.1385C80.2039 20.1385 81.5242 18.6751 81.5242 16.4822C81.5242 14.2848 80.2039 12.8168 78.1265 12.8168C76.0491 12.8168 74.7288 14.2848 74.7288 16.4822C74.7288 18.6751 76.0491 20.1385 78.1265 20.1385ZM78.1357 18.7997C76.9862 18.7997 76.423 17.7749 76.423 16.4776C76.423 15.1804 76.9862 14.1417 78.1357 14.1417C79.2668 14.1417 79.83 15.1804 79.83 16.4776C79.83 17.7749 79.2668 18.7997 78.1357 18.7997ZM86.4835 12.9091H85.0847V11.2102H83.4135V12.9091H82.4071V14.2017H83.4135V18.1442C83.4043 19.4783 84.3738 20.1339 85.6294 20.0969C86.1049 20.0831 86.4327 19.9908 86.6127 19.9308L86.3311 18.6243C86.2388 18.6474 86.0495 18.6889 85.8418 18.6889C85.4217 18.6889 85.0847 18.5412 85.0847 17.8672V14.2017H86.4835V12.9091ZM90.898 20.1385C92.9754 20.1385 94.2957 18.6751 94.2957 16.4822C94.2957 14.2848 92.9754 12.8168 90.898 12.8168C88.8206 12.8168 87.5003 14.2848 87.5003 16.4822C87.5003 18.6751 88.8206 20.1385 90.898 20.1385ZM90.9072 18.7997C89.7577 18.7997 89.1945 17.7749 89.1945 16.4776C89.1945 15.1804 89.7577 14.1417 90.9072 14.1417C92.0383 14.1417 92.6015 15.1804 92.6015 16.4776C92.6015 17.7749 92.0383 18.7997 90.9072 18.7997Z" fill="white"/>
</g>
<defs>
<clipPath id="clip0_8219_12">
<rect width="138" height="30" fill="white"/>
</clipPath>
</defs>
</svg>
